<svg width="116" height="45" viewBox="0 0 116 45" fill="none" xmlns="http://www.w3.org/2000/svg">
<path d="M111.138 30.0001L110.53 26.8001C109.314 28.7201 107.394 30.3841 104.706 30.3841C101.922 30.3841 100.578 28.6241 100.578 26.6081C100.578 24.0481 102.946 22.4481 107.106 20.4961L110.434 18.9281V17.4561C110.434 15.2481 110.082 14.1921 108.994 14.1921C107.906 14.1921 106.274 15.4081 103.682 18.2881C102.946 19.1521 101.858 18.6401 102.05 17.5201L102.466 14.8321C103.842 14.1601 106.53 13.3921 108.514 13.3921C111.778 13.3921 113.922 15.2481 113.858 19.9201L113.826 25.8081L114.594 30.0001H111.138ZM103.906 25.1681C103.906 26.5761 104.994 27.7921 106.786 27.7921C108.162 27.7921 109.538 27.0561 110.434 26.0001V19.8561L107.81 21.1041C105.602 22.1281 103.906 23.4401 103.906 25.1681Z" fill="#FCFFF8"/>
<path d="M91.1209 29.9998L84.8809 13.8398H88.4969L93.4889 27.2798C94.4489 23.9838 95.2169 20.1758 95.6329 15.3118C95.6969 14.3838 96.4009 13.7758 97.2649 13.8078H99.9849L93.0409 29.9998H91.1209Z" fill="#FCFFF8"/>
<path d="M77.1687 30.4483C72.7207 30.4483 69.5527 27.0883 69.5527 22.4163C69.5527 17.4883 73.0727 13.4243 77.6807 13.4243C81.4247 13.4243 83.7927 16.1123 83.7927 19.1843C83.7927 21.2963 82.6087 21.3603 81.3607 21.3603H72.7527C73.2327 24.5923 75.2487 28.1763 79.1847 28.1763C80.6247 28.1763 82.0007 27.6323 83.1847 26.5763L83.5687 26.9923C82.0007 29.0083 80.0807 30.4483 77.1687 30.4483ZM72.6247 19.8243C72.6247 20.0483 72.6567 20.2403 72.6567 20.4643H80.2087V20.4003C80.2087 17.8403 79.0247 14.4803 76.3047 14.4803C74.0007 14.4803 72.6247 16.7203 72.6247 19.8243Z" fill="#FCFFF8"/>
<path d="M61.2773 30.4481C58.4293 30.4481 55.5173 29.2321 53.1813 27.4401L52.6053 23.9521C52.4773 22.9281 53.4373 22.5121 54.1413 23.1841C57.3093 26.1921 61.1813 28.2401 64.0613 28.2401C65.7893 28.2401 66.6213 27.4721 66.6213 26.1601C66.6213 23.9521 64.3493 22.5121 60.6693 20.1761C55.7733 17.1041 53.7253 14.9281 53.7253 12.3041C53.7253 10.0641 55.3893 7.18408 60.4453 7.18408C62.4933 7.18408 64.6693 7.69608 66.5253 8.56008L67.0373 11.8561C67.1973 12.8161 66.3013 13.2641 65.5653 12.6561C62.8133 10.3521 59.6133 8.65608 57.5973 8.65608C56.2533 8.65608 55.4533 9.36008 55.4533 10.3521C55.4533 11.8241 57.4373 13.7761 61.3733 16.1761C66.6853 19.3761 67.9973 21.4881 67.9973 24.0481C67.9973 27.6321 65.5653 30.4481 61.2773 30.4481Z" fill="#FCFFF8"/>
<path d="M36.1113 33.5947V17.8401L35.6953 14.0641L39.0233 13.5521L39.4073 16.6561C40.6233 14.8961 42.4473 13.3921 44.8473 13.3921C48.0153 13.3921 51.1193 16.0801 51.1193 21.1361C51.1193 26.6401 47.4713 30.4481 43.8553 30.4481C42.3513 30.4481 40.6233 29.8081 39.4073 28.3361V35.1846C38.5193 34.1454 37.895 33.7352 36.1113 33.5947ZM39.5033 17.5201V21.5521C39.5033 26.1281 42.1273 29.4241 44.6873 29.4241C46.8953 29.4241 47.9193 26.8001 47.9193 24.0161C47.8873 20.5281 46.3513 15.5041 42.8953 15.5041C41.7753 15.5041 40.6553 16.0161 39.5033 17.5201Z" fill="#FCFFF8"/>
<path d="M29.3256 30.0001L28.7176 26.8001C27.5016 28.7201 25.5816 30.3841 22.8936 30.3841C20.1096 30.3841 18.7656 28.6241 18.7656 26.6081C18.7656 24.0481 21.1336 22.4481 25.2936 20.4961L28.6216 18.9281V17.4561C28.6216 15.2481 28.2696 14.1921 27.1816 14.1921C26.0936 14.1921 24.4616 15.4081 21.8696 18.2881C21.1336 19.1521 20.0456 18.6401 20.2376 17.5201L20.6536 14.8321C22.0296 14.1601 24.7176 13.3921 26.7016 13.3921C29.9656 13.3921 32.1096 15.2481 32.0456 19.9201L32.0136 25.8081L32.7816 30.0001H29.3256ZM22.0936 25.1681C22.0936 26.5761 23.1816 27.7921 24.9736 27.7921C26.3496 27.7921 27.7256 27.0561 28.6216 26.0001V19.8561L25.9976 21.1041C23.7896 22.1281 22.0936 23.4401 22.0936 25.1681Z" fill="#FCFFF8"/>
<path d="M8.38408 30.0001V8.3681C7.04008 8.3681 4.38408 9.2641 1.82408 11.7921C1.08808 12.5921 -0.159919 12.0161 0.224081 10.6721L1.12008 7.6001H19.2961L20.1921 10.6721C20.5761 12.0161 19.3601 12.5921 18.5921 11.7921C16.0641 9.2961 13.4081 8.4001 12.0641 8.3681V30.0001H8.38408Z" fill="#FCFFF8"/>
<path d="M33.8359 41.9998V34.3108H36.0249C38.1149 34.3108 38.9619 35.1138 38.9619 36.1148C38.9619 37.0058 38.2359 37.6548 37.2239 37.8968C38.5989 38.0618 39.3689 38.9198 39.3689 39.8438C39.3689 41.1308 38.0929 41.9998 36.2779 41.9998H33.8359ZM35.3759 41.6038C35.5849 41.6368 35.8379 41.6478 36.1679 41.6478C36.4539 41.6478 37.6749 41.6478 37.6749 40.0748C37.6749 38.7108 36.7289 38.1168 35.8819 38.1168C35.6729 38.1168 35.5079 38.1278 35.3759 38.1388V41.6038ZM35.3759 37.7538C35.5299 37.7648 35.7389 37.7868 36.0029 37.7868C36.2449 37.7868 37.3009 37.7868 37.3009 36.3788C37.3009 35.0698 36.3989 34.6518 35.7609 34.6518C35.5959 34.6518 35.4749 34.6518 35.3759 34.6628V37.7538Z" fill="#FCFFF8"/>
<path d="M40.3449 43.4408C40.2789 43.0008 40.5319 42.7918 40.9389 42.8028C41.5879 42.8358 42.4569 42.6928 42.4569 42.3188C42.4569 42.1648 42.3029 41.8898 41.2909 41.5928L39.5199 36.4448H40.9939L42.7539 41.6588C43.1609 40.2948 43.3919 38.7548 43.4359 37.0168C43.4469 36.6428 43.6889 36.4228 44.0519 36.4228L45.3059 36.4338L42.7319 42.5168C42.2259 43.7158 41.5109 44.4198 40.4989 44.4198L40.3449 43.4408Z" fill="#FCFFF8"/>
<path d="M53.1257 38.9998L52.4437 37.4158H49.6717C49.6057 37.7678 49.5507 38.1198 49.4957 38.4608C49.4517 38.8018 49.1987 38.9998 48.8907 38.9998H47.3177L50.6067 33.1808L49.7157 31.2998H51.4317L54.7537 38.9998H53.1257ZM49.7487 37.0418H52.2897L50.7387 33.4228C50.3317 34.5668 49.9907 35.8318 49.7487 37.0418Z" fill="#FCFFF8"/>
<path d="M58.8786 35.4138C58.8786 34.7098 58.6256 34.2478 58.0646 34.2478C57.6686 34.2478 57.2616 34.5118 56.8766 34.9188V38.9998H55.4466V35.1058L55.2816 33.5548L56.6896 33.3238L56.8436 34.5888C57.3276 33.8518 58.0536 33.2908 58.7906 33.2908C59.6816 33.2908 60.3086 34.0828 60.3086 35.5018V38.9998H58.8786V35.4138Z" fill="#FCFFF8"/>
<path d="M63.0309 39.1648H63.0199C62.1399 39.1648 61.5129 38.3618 61.5129 36.9428V33.4448H62.9429V37.0308C62.9429 37.7458 63.1959 38.1968 63.7459 38.1968C64.1419 38.1968 64.5599 37.9548 64.9339 37.5588V33.4338H66.3639V37.3388L66.6279 38.9998H65.1869L64.9889 37.8778C64.5049 38.6038 63.7679 39.1648 63.0309 39.1648Z" fill="#FCFFF8"/>
<path d="M67.8216 38.9998V35.1058L67.6566 33.5548L69.0646 33.3238L69.2406 34.7648C69.8676 33.8518 70.5496 33.3238 71.3306 33.3238V34.4568C71.3306 34.7538 71.0886 34.9408 70.7916 34.8968C70.2086 34.7978 69.6366 34.8418 69.2516 35.0618V38.9998H67.8216Z" fill="#FCFFF8"/>
<path d="M75.1975 38.9998L74.9775 37.9218C74.5925 38.5928 73.9325 39.1318 73.0195 39.1318C72.0515 39.1318 71.6335 38.5378 71.6335 37.8558C71.6335 37.0748 72.1725 36.5468 73.7785 35.7878L74.9445 35.2488V34.4898C74.9445 33.7638 74.8235 33.6098 74.6145 33.6098C74.2845 33.6098 73.8335 34.0058 72.8215 35.1608C72.5135 35.5018 72.0845 35.3038 72.1505 34.8528L72.3265 33.7308C72.7885 33.5108 73.7015 33.2798 74.4165 33.2798C75.5275 33.2798 76.4075 33.8408 76.3855 35.6338L76.3635 37.5148L76.6385 38.9998H75.1975ZM73.0085 37.2618C73.0085 37.7128 73.3385 38.0758 73.8775 38.0758C74.2295 38.0758 74.6695 37.9218 74.9445 37.6138V35.6338L74.3395 35.9198C73.4045 36.3488 73.0085 36.7778 73.0085 37.2618Z" fill="#FCFFF8"/>
<path d="M79.6724 41.4198C78.9134 41.4198 77.9894 41.1668 77.2194 40.5178L77.7694 39.8248C78.0114 39.5278 78.3194 39.4618 78.6714 39.7258C79.3974 40.2538 80.3874 40.6388 81.0034 40.6388C81.2454 40.6388 81.4214 40.5728 81.4214 40.3638C81.4214 39.9238 80.6074 38.9998 78.5724 38.9998C78.4954 38.9998 78.3304 39.0108 78.1984 39.0108V38.7468L79.5734 37.9218C78.1984 37.9218 77.2524 36.9758 77.2524 35.7328C77.2524 34.3688 78.3854 33.2688 79.7714 33.2688C80.3104 33.2688 80.7944 33.4448 81.4984 33.4448H82.5654V33.8298H81.2014C81.7514 34.2148 82.0814 34.7648 82.0814 35.5348C82.0814 36.4148 81.6524 37.1518 80.9374 37.5808L79.8814 38.1968C79.9034 38.1968 79.9254 38.1968 79.9584 38.1968C81.3224 38.1968 82.2024 38.7468 82.2024 39.5938C82.2024 40.5838 81.0254 41.4198 79.6724 41.4198ZM80.4314 37.3718C80.7504 37.3718 80.9374 37.1298 80.9374 36.7118C80.9374 35.6998 79.7824 33.8298 78.9134 33.8298C78.5724 33.8298 78.4074 34.1048 78.4074 34.5008C78.4074 35.5128 79.5624 37.3718 80.4314 37.3718Z" fill="#FCFFF8"/>
</svg>
