<svg width="21" height="21" viewBox="0 0 21 21" fill="none" xmlns="http://www.w3.org/2000/svg">
<rect width="21" height="21" rx="10.5" fill="#8AB740"/>
<path d="M7.82966 12.7732V5.33724C7.36766 5.33724 6.45466 5.64524 5.57466 6.51424C5.32166 6.78924 4.89266 6.59124 5.02466 6.12924L5.33266 5.07324H11.5807L11.8887 6.12924C12.0207 6.59124 11.6027 6.78924 11.3387 6.51424C10.4697 5.65624 9.55666 5.34824 9.09466 5.33724V12.7732H7.82966Z" fill="white"/>
<path d="M13.0937 15.9272C12.1147 15.9272 11.1137 15.5092 10.3107 14.8932L10.1127 13.6942C10.0687 13.3422 10.3987 13.1992 10.6407 13.4302C11.7297 14.4642 13.0607 15.1682 14.0507 15.1682C14.6447 15.1682 14.9307 14.9042 14.9307 14.4532C14.9307 13.6942 14.1497 13.1992 12.8847 12.3962C11.2017 11.3402 10.4977 10.5922 10.4977 9.69024C10.4977 8.92024 11.0697 7.93024 12.8077 7.93024C13.5117 7.93024 14.2597 8.10624 14.8977 8.40324L15.0737 9.53624C15.1287 9.86624 14.8207 10.0202 14.5677 9.81124C13.6217 9.01924 12.5217 8.43624 11.8287 8.43624C11.3667 8.43624 11.0917 8.67824 11.0917 9.01924C11.0917 9.52524 11.7737 10.1962 13.1267 11.0212C14.9527 12.1212 15.4037 12.8472 15.4037 13.7272C15.4037 14.9592 14.5677 15.9272 13.0937 15.9272Z" fill="white"/>
</svg>
